<?xml version="1.0" encoding="utf-8"?>
<!-- Generator: Adobe Illustrator 22.1.0, SVG Export Plug-In . SVG Version: 6.00 Build 0)  -->
<svg version="1.1" id="Layer_1" xmlns="http://www.w3.org/2000/svg" xmlns:xlink="http://www.w3.org/1999/xlink" x="0px" y="0px"
	 viewBox="0 0 22 22" style="enable-background:new 0 0 22 22;" xml:space="preserve">
<style type="text/css">
	.st0{fill:#9499AE;}
</style>
<path id="comment-plus-outline" class="st0" d="M7.7,22c-0.6,0-1.1-0.5-1.1-1.1v-3.3H2.2c-1.2,0-2.2-1-2.2-2.2V2.2C0,1,1,0,2.2,0
	h17.6C21,0,22,1,22,2.2v13.2c0,1.2-1,2.2-2.2,2.2h-6.7L9,21.7C8.8,21.9,8.5,22,8.3,22H7.7 M8.8,15.4v3.4l3.4-3.4h7.6V2.2H2.2v13.2
	H8.8 M9.9,4.4h2.2v3.3h3.3v2.2h-3.3v3.3H9.9V9.9H6.6V7.7h3.3V4.4z"/>
</svg>
