<svg xmlns="http://www.w3.org/2000/svg" width="19.333" height="15.259" viewBox="0 0 19.333 15.259"><defs><style>.a{fill:#b2b2b2;}</style></defs><path class="a" d="M9.623,11.444l1.257-1.257L9.233,8.539,7.976,9.8V10.4H9.016v1.041h.607Zm4.768-7.8a.224.224,0,0,0-.358.011L10.241,7.445a.246.246,0,1,0,.347.347L14.38,4a.224.224,0,0,0,.011-.358Zm.867,6.437v2.059a3.127,3.127,0,0,1-3.121,3.121H3.121a3,3,0,0,1-2.205-.916A3.009,3.009,0,0,1,0,12.137V3.121A3,3,0,0,1,.916.916,3.009,3.009,0,0,1,3.121,0h9.016a2.98,2.98,0,0,1,1.268.271.33.33,0,0,1,.2.249.338.338,0,0,1-.1.314l-.531.531a.317.317,0,0,1-.347.087,1.92,1.92,0,0,0-.488-.065H3.121A1.67,1.67,0,0,0,1.9,1.9a1.67,1.67,0,0,0-.509,1.225v9.016A1.67,1.67,0,0,0,1.9,13.361a1.67,1.67,0,0,0,1.225.509h9.016a1.739,1.739,0,0,0,1.734-1.734V10.772a.324.324,0,0,1,.1-.238l.694-.694a.326.326,0,0,1,.379-.076.314.314,0,0,1,.217.314Zm-1.041-8L17.339,5.2l-7.282,7.282H6.936V9.363Zm4.812,1.431-1,1L14.911,1.387l1-1a1.046,1.046,0,0,1,1.474,0l1.647,1.647a1,1,0,0,1,.3.737,1,1,0,0,1-.3.737Z"/></svg>