<svg xmlns="http://www.w3.org/2000/svg" xmlns:xlink="http://www.w3.org/1999/xlink" width="61" height="61" viewBox="0 0 63 63"><defs><style>.a{fill:#fff;}.b{fill:#293875;}.c{filter:url(#a);}</style><filter id="a" x="0" y="0" width="63" height="63" filterUnits="userSpaceOnUse"><feOffset dy="1" input="SourceAlpha"/><feGaussianBlur stdDeviation="4" result="b"/><feFlood flood-color="#989898" flood-opacity="0.161"/><feComposite operator="in" in2="b"/><feComposite in="SourceGraphic"/></filter></defs><g transform="translate(-903 -921)"><g class="c" transform="matrix(1, 0, 0, 1, 903, 921)"><circle class="a" cx="19.5" cy="19.5" r="19.5" transform="translate(12 11)"/></g><g transform="translate(924.41 941.032)"><path class="b" d="M-4778.583,1292.266c0-1.408.007-2.816-.006-4.225a.681.681,0,0,1,.688-.685c1.312.011,2.623.006,3.934,0a.763.763,0,0,1,.446.121.119.119,0,0,0,.109-.016,3.04,3.04,0,0,0,.7-.933,17.876,17.876,0,0,0,.756-1.865,4.152,4.152,0,0,1,.669-1.134,12.572,12.572,0,0,1,1.32-1.354,3.1,3.1,0,0,0,.76-1.129,7.547,7.547,0,0,0,.486-1.989,2.36,2.36,0,0,1,.213-.8,1.368,1.368,0,0,1,1.458-.763,1.394,1.394,0,0,1,.7.328,3.359,3.359,0,0,1,.977,1.5,4.986,4.986,0,0,1,.275,2.141,3.09,3.09,0,0,1-.495,1.444c-.221.349-.442.7-.657,1.053-.12.2-.229.4-.338.6-.068.127-.057.149.069.219a1.135,1.135,0,0,0,.586.1c.494-.013.989-.05,1.481-.035.75.022,1.5.08,2.244.121a2.087,2.087,0,0,1,1.494.734,3.068,3.068,0,0,1,.729,1.251,1.555,1.555,0,0,1-.078,1.031c-.108.261-.237.516-.365.768a.147.147,0,0,0,.011.179,2.677,2.677,0,0,1,.435.937,1.4,1.4,0,0,1-.143,1.066,8.023,8.023,0,0,1-.5.72.2.2,0,0,0-.026.224,2.386,2.386,0,0,1,.192.946,1.312,1.312,0,0,1-.188.667c-.172.277-.364.542-.554.809a.278.278,0,0,0-.072.254c.045.164.064.335.11.5a1.078,1.078,0,0,1-.144.883,2.51,2.51,0,0,1-.94.866,4.992,4.992,0,0,1-1.465.495,25.549,25.549,0,0,1-2.723.429,7.483,7.483,0,0,1-1.841-.01c-.433-.064-.866-.14-1.291-.24-.689-.161-1.371-.358-2.06-.516-.379-.087-.771-.127-1.158-.184-.135-.02-.272-.026-.409-.04a.088.088,0,0,0-.107.061.649.649,0,0,1-.648.4q-1.967,0-3.934,0a.649.649,0,0,1-.687-.682q0-1.651,0-3.3v-.953Zm5.321-.072h.006v.271q0,1.451,0,2.9c0,.073.014.1.1.11.453.047.909.075,1.354.162.549.108,1.086.277,1.633.4q.948.216,1.9.4a4.929,4.929,0,0,0,1.34.061,21.158,21.158,0,0,0,2.481-.347,5.519,5.519,0,0,0,1.465-.4,3.381,3.381,0,0,0,.494-.353.177.177,0,0,0,.057-.134c-.024-.158-.061-.315-.1-.471a1.265,1.265,0,0,1,.257-1.183c.164-.193.3-.409.449-.614a.421.421,0,0,0,.058-.417c-.069-.188-.129-.379-.2-.566a.756.756,0,0,1,.014-.623,3.505,3.505,0,0,1,.265-.435c.124-.178.262-.345.39-.52a.327.327,0,0,0,.063-.329,2.572,2.572,0,0,0-.1-.237c-.088-.151-.185-.3-.272-.445a1.1,1.1,0,0,1-.183-.615,1.317,1.317,0,0,1,.178-.517c.1-.209.215-.414.319-.623a.573.573,0,0,0,.023-.564,2.6,2.6,0,0,0-.47-.632.69.69,0,0,0-.411-.209c-.117-.013-.233-.036-.351-.042-.818-.036-1.636-.078-2.454-.1-.4-.01-.81.042-1.214.033a2.011,2.011,0,0,1-1.58-.782.845.845,0,0,1-.188-.508,1.746,1.746,0,0,1,.193-.812,13.831,13.831,0,0,1,.957-1.631,2.253,2.253,0,0,0,.4-.886,3.551,3.551,0,0,0-.477-2.4,1.711,1.711,0,0,0-.294-.338c-.088-.083-.18-.053-.23.059a.381.381,0,0,0-.026.1q-.044.292-.083.585a8.175,8.175,0,0,1-.351,1.5c-.093.271-.2.537-.322.8a3.681,3.681,0,0,1-.751,1.092c-.366.366-.748.716-1.1,1.094a4.914,4.914,0,0,0-.582.773,4.671,4.671,0,0,0-.291.679c-.213.515-.415,1.035-.643,1.544a3.912,3.912,0,0,1-.725,1.1,5.144,5.144,0,0,1-.931.787.145.145,0,0,0-.055.1c0,.562-.006,1.124-.008,1.686Q-4773.263,1291.447-4773.263,1292.194Zm-4.091,3.721h2.818v-7.275h-2.818Z" transform="translate(4778.59 -1277.484)"/><rect class="b" width="4" height="9" transform="translate(0.59 10.968)"/></g></g></svg>