<svg xmlns="http://www.w3.org/2000/svg" xmlns:xlink="http://www.w3.org/1999/xlink" width="61" height="61" viewBox="0 0 63 63"><defs><style>.a{fill:#fff;}.b{fill:#293875;}.c{filter:url(#a);}</style><filter id="a" x="0" y="0" width="63" height="63" filterUnits="userSpaceOnUse"><feOffset dy="1" input="SourceAlpha"/><feGaussianBlur stdDeviation="4" result="b"/><feFlood flood-color="#989898" flood-opacity="0.161"/><feComposite operator="in" in2="b"/><feComposite in="SourceGraphic"/></filter></defs><g transform="translate(-954 -921)"><g class="c" transform="matrix(1, 0, 0, 1, 954, 921)"><circle class="a" cx="19.5" cy="19.5" r="19.5" transform="translate(51 50) rotate(180)"/></g><g transform="translate(976.711 941.917)"><g transform="translate(18.654 20.301) rotate(180)"><path class="b" d="M.007,14.782c0-1.408.007-2.816-.007-4.225a.681.681,0,0,1,.688-.685c1.311.011,2.622.006,3.934,0A.762.762,0,0,1,5.068,10a.119.119,0,0,0,.109-.016,3.045,3.045,0,0,0,.7-.933,17.842,17.842,0,0,0,.756-1.865A4.148,4.148,0,0,1,7.3,6.049a12.58,12.58,0,0,1,1.32-1.354,3.1,3.1,0,0,0,.76-1.129,7.531,7.531,0,0,0,.486-1.989,2.371,2.371,0,0,1,.213-.8A1.367,1.367,0,0,1,11.535.016a1.393,1.393,0,0,1,.7.328,3.359,3.359,0,0,1,.977,1.5,4.989,4.989,0,0,1,.275,2.141,3.089,3.089,0,0,1-.495,1.444c-.221.349-.442.7-.657,1.053-.12.2-.229.4-.338.6-.068.127-.057.149.069.218a1.133,1.133,0,0,0,.586.1c.494-.013.989-.05,1.482-.035.749.022,1.5.08,2.244.121a2.088,2.088,0,0,1,1.494.734A3.068,3.068,0,0,1,18.6,9.478a1.553,1.553,0,0,1-.078,1.031c-.108.261-.237.515-.364.768a.147.147,0,0,0,.01.179,2.671,2.671,0,0,1,.435.937,1.4,1.4,0,0,1-.143,1.066,8.074,8.074,0,0,1-.5.72.2.2,0,0,0-.027.224,2.385,2.385,0,0,1,.192.946,1.312,1.312,0,0,1-.189.667c-.172.277-.364.542-.554.809a.278.278,0,0,0-.072.254c.045.164.064.335.11.5a1.078,1.078,0,0,1-.144.883,2.511,2.511,0,0,1-.941.866,4.99,4.99,0,0,1-1.465.495,25.5,25.5,0,0,1-2.723.429,7.479,7.479,0,0,1-1.841-.01c-.433-.064-.866-.14-1.29-.24-.689-.161-1.371-.358-2.06-.516-.38-.087-.771-.127-1.158-.184-.136-.02-.273-.025-.409-.04a.088.088,0,0,0-.107.061.649.649,0,0,1-.648.4q-1.967,0-3.934,0a.649.649,0,0,1-.687-.682q0-1.65,0-3.3v-.953Zm5.321-.072h.006v.271q0,1.451,0,2.9c0,.073.014.1.1.11.453.047.909.075,1.354.162.549.108,1.086.277,1.633.4q.947.216,1.9.4a4.932,4.932,0,0,0,1.34.061,21.167,21.167,0,0,0,2.481-.347,5.519,5.519,0,0,0,1.465-.4,3.359,3.359,0,0,0,.494-.353.175.175,0,0,0,.057-.134c-.024-.158-.061-.315-.1-.471a1.265,1.265,0,0,1,.257-1.183c.164-.192.3-.409.449-.614a.421.421,0,0,0,.057-.417c-.069-.188-.13-.379-.2-.566a.755.755,0,0,1,.014-.623,3.547,3.547,0,0,1,.265-.435c.124-.178.262-.345.39-.52a.328.328,0,0,0,.063-.33,2.5,2.5,0,0,0-.105-.237c-.088-.151-.184-.3-.272-.445a1.1,1.1,0,0,1-.183-.615,1.311,1.311,0,0,1,.178-.517c.1-.209.215-.414.319-.623a.574.574,0,0,0,.023-.564,2.594,2.594,0,0,0-.47-.632.691.691,0,0,0-.411-.209c-.117-.013-.233-.036-.35-.042-.819-.036-1.636-.078-2.454-.1-.4-.01-.809.042-1.214.033a2.01,2.01,0,0,1-1.58-.782.844.844,0,0,1-.188-.508,1.75,1.75,0,0,1,.193-.812,13.824,13.824,0,0,1,.957-1.631,2.258,2.258,0,0,0,.4-.886,3.55,3.55,0,0,0-.477-2.4,1.707,1.707,0,0,0-.294-.338c-.088-.083-.18-.053-.23.059a.367.367,0,0,0-.027.1q-.044.292-.083.585a8.123,8.123,0,0,1-.351,1.5c-.093.271-.2.537-.322.8a3.682,3.682,0,0,1-.751,1.092c-.366.366-.748.716-1.1,1.094a4.9,4.9,0,0,0-.582.773,4.682,4.682,0,0,0-.291.679c-.213.515-.414,1.035-.642,1.544a3.914,3.914,0,0,1-.724,1.1,5.146,5.146,0,0,1-.931.787.146.146,0,0,0-.055.1c0,.562-.006,1.124-.008,1.686Q5.327,13.962,5.327,14.71ZM1.236,18.431H4.054V11.156H1.236Z" transform="translate(0 0)"/></g><rect class="b" width="4" height="9" transform="translate(14.289 1.083)"/></g></g></svg>