<svg xmlns="http://www.w3.org/2000/svg" width="17" height="20" viewBox="0 0 30.146 30.146"><defs><style>.a{fill:#fff;}</style></defs><g transform="translate(746.41 -1186.963)"><path class="a" d="M-731.346,1217.109a15.089,15.089,0,0,1-15.064-15.093,15.087,15.087,0,0,1,15.1-15.054,15.085,15.085,0,0,1,15.045,15.072A15.087,15.087,0,0,1-731.346,1217.109Zm.012-27.827a12.767,12.767,0,0,0-12.757,12.731,12.767,12.767,0,0,0,12.751,12.776,12.766,12.766,0,0,0,12.757-12.732A12.764,12.764,0,0,0-731.334,1189.282Z" transform="translate(0 0)"/><path class="a" d="M-604.393,1356.977q0,2.221,0,4.443c0,.65.209.887.852.953.333.034.668.043,1,.049.231,0,.313.106.31.333-.015,1.045.107.848-.818.852-2.589.011-5.177,0-7.766.011-.372,0-.5-.105-.479-.479.034-.769-.081-.7.706-.732.27-.012.542-.009.81-.038a.743.743,0,0,0,.739-.747,6.436,6.436,0,0,0,.016-.656q0-3.187,0-6.375c0-.762-.215-1.007-.964-1.133a5.484,5.484,0,0,0-1.156-.028c-.258.011-.375-.073-.369-.349.02-.927-.109-.8.784-.835,1.917-.068,3.835-.143,5.752-.214.577-.021.578-.019.579.541Q-604.392,1354.775-604.393,1356.977Z" transform="translate(-124.47 -152.298)"/><path class="a" d="M-586.256,1267.157a2.587,2.587,0,0,1-2.611-2.591,2.6,2.6,0,0,1,2.59-2.617,2.614,2.614,0,0,1,2.617,2.6A2.6,2.6,0,0,1-586.256,1267.157Z" transform="translate(-145.36 -69.188)"/></g></svg>
