<svg xmlns="http://www.w3.org/2000/svg" xmlns:xlink="http://www.w3.org/1999/xlink" viewBox="0 0 120 37" fill="#fff" fill-rule="evenodd" stroke="#000" stroke-linecap="round" stroke-linejoin="round">
    <use xlink:href="#A" x=".5" y=".5" />
    <symbol id="A" overflow="visible">
        <g stroke="none" fill-rule="nonzero">
            <path d="M0 1.241A1.24 1.24 0 0 1 1.241 0h32.825a1.24 1.24 0 0 1 1.241 1.241v32.825a1.24 1.24 0 0 1-1.241 1.241H1.241A1.24 1.24 0 0 1 0 34.067z" fill="#37aee2" />
            <path d="M13.723 27.861c-.758 0-.69-.276-.896-.965l-2.207-7.241 16.895-9.93" fill="#c8daea" />
            <path d="M13.723 27.861c.483 0 .759-.276 1.103-.552l3.103-2.965-3.862-2.345" fill="#a9c9dd" />
            <path d="M14.068 21.999l9.31 6.827c.965.621 1.793.276 2.069-.966l3.793-17.792c.345-1.517-.621-2.207-1.655-1.724L5.448 16.895C4 17.447 4 18.344 5.173 18.688l5.724 1.793 13.103-8.344c.621-.345 1.172-.207.759.276" fill="#f6fbfe" />
            <path d="M44.849 22.291v-10.2h-4.246v-1.623h10.945v1.623h-4.237v10.2zm15.502-.297q-1.687.496-3.198.496-2.2 0-3.47-1.247-1.27-1.247-1.27-3.406 0-2.04 1.16-3.278 1.167-1.247 3.078-1.247 1.927 0 2.814 1.215.887 1.215.887 3.846h-5.445q.24 2.5 2.758 2.5 1.2 0 2.686-.552zm-5.477-4.957h3.15q0-2.247-1.447-2.247-1.47 0-1.703 2.247zm7.924 5.254V9.667h2.367v12.624zm12.488-.297q-1.687.496-3.198.496-2.2 0-3.47-1.247-1.27-1.247-1.27-3.406 0-2.04 1.16-3.278 1.167-1.247 3.078-1.247 1.927 0 2.814 1.215.887 1.215.887 3.846h-5.444q.24 2.5 2.758 2.5 1.2 0 2.686-.552zm-5.477-4.957h3.15q0-2.247-1.447-2.247-1.47 0-1.703 2.247zm7.988 7.98l.192-1.72q1.463.672 2.8.672 1.3 0 1.895-.56.584-.56.584-1.815v-1.2q-.863 1.895-2.854 1.895-1.567 0-2.486-1.167-.92-1.175-.92-3.174 0-2.103 1.03-3.366 1.03-1.27 2.742-1.27 1.343 0 2.486 1.087l.248-.887h2.127v6.7q0 2.007-.248 2.894-.24.887-.943 1.5-1.183 1.023-3.334 1.023-1.527 0-3.3-.624zm5.46-5.996v-3.237q-.855-.967-1.8-.967-.895 0-1.423.816-.528.816-.528 2.2 0 2.574 1.655 2.574 1.143 0 2.087-1.375zm5.286 3.27v-8.78h2.367v1.655q.92-1.855 2.798-1.855.224 0 .44.048v2.1q-.504-.184-.935-.184-1.415 0-2.303 1.43v5.573zm11.752-.944q-1.183 1.143-2.534 1.143-1.15 0-1.87-.704-.72-.704-.72-1.823 0-1.455 1.16-2.24 1.167-.792 3.334-.792h.632v-.8q0-1.367-1.56-1.367-1.383 0-2.798.784v-1.63q1.607-.608 3.182-.608 3.446 0 3.446 2.742v3.886q0 1.03.632 1.03.144 0 .4-.088v1.374q-.752.224-1.327.224-1.455 0-1.87-1.143zm0-1.27v-1.783h-.56q-1.07 0-1.687.384-.608.384-.608 1.055 0 .488.328.823.336.328.823.328.83 0 1.703-.808zm5.325 2.213v-8.78h2.27v1.655q1.04-1.855 2.958-1.855 1 0 1.63.488.64.488.784 1.367 1.23-1.855 2.974-1.855 2.407 0 2.407 2.654v6.324h-2.27v-5.55q0-1.56-1.04-1.56-1.063 0-2.07 1.535v5.573h-2.27v-5.55q0-1.567-1.047-1.567-1.047 0-2.055 1.543v5.573z" fill="#37aee2" />
        </g>
    </symbol>
</svg>
