<?xml version="1.0" encoding="utf-8"?>
<!-- Generator: Adobe Illustrator 22.1.0, SVG Export Plug-In . SVG Version: 6.00 Build 0)  -->
<svg version="1.1" id="Layer_1" xmlns="http://www.w3.org/2000/svg" xmlns:xlink="http://www.w3.org/1999/xlink" x="0px" y="0px"
	 viewBox="0 0 22 22" style="enable-background:new 0 0 22 22;" xml:space="preserve">
<style type="text/css">
	.st0{fill:#9499AE;}
</style>
<path id="robot-vacuum" class="st0" d="M11,0c2.9,0,5.7,1.2,7.8,3.2l-1.6,1.6c-3.4-3.4-8.9-3.4-12.4,0c0,0,0,0,0,0L3.2,3.2
	C5.3,1.2,8.1,0,11,0 M1.8,5l1.6,1.6c-2.5,4.2-1.1,9.6,3.1,12s9.6,1.1,12-3.1c0.8-1.4,1.2-2.9,1.2-4.5c0-1.6-0.4-3.1-1.2-4.5L20.2,5
	c3.3,5.1,2,11.9-3.1,15.2c-5.1,3.3-11.9,2-15.2-3.1C0.6,15.3,0,13.2,0,11C0,8.9,0.7,6.7,1.8,5 M11,4.4c3.6,0,6.6,3,6.6,6.6
	c0,1.7-0.7,3.4-1.9,4.6l-1.5-1.5c-1.7,1.7-4.5,1.7-6.2,0l-1.5,1.5c-2.6-2.6-2.6-6.7,0-9.3C7.6,5.1,9.3,4.4,11,4.4 M11,6.6
	c-0.6,0-1.1,0.5-1.1,1.1c0,0.6,0.5,1.1,1.1,1.1c0.6,0,1.1-0.5,1.1-1.1C12.1,7.1,11.6,6.6,11,6.6z"/>
</svg>
