<svg xmlns="http://www.w3.org/2000/svg" width="10.988" height="8.939" viewBox="0 0 10.988 8.939">
    <defs>
        <style>
            .prefix__cls-1{fill:#fff}
        </style>
    </defs>
    <g id="prefix__Group_102" data-name="Group 102" transform="translate(-303.206 -381.191)">
        <path id="prefix__Path_119" d="M312.99 389.729a3.069 3.069 0 0 1-1.735.4 7.093 7.093 0 0 1-2.653-.679 11.626 11.626 0 0 1-2.455-1.492 10.867 10.867 0 0 1-1.418-1.321 7.4 7.4 0 0 1-1.016-1.44 3.685 3.685 0 0 1-.5-2.041 2.572 2.572 0 0 1 .082-.466c.023-.088.054-.119.143-.055.364.263.731.521 1.1.78l1.087.772.467.332c.035.025.089.049.051.107a.528.528 0 0 0 .033.565 1.7 1.7 0 0 0 .341.441 9.093 9.093 0 0 0 3 2.014 1.584 1.584 0 0 0 .58.133.284.284 0 0 0 .294-.146c.034-.069.068-.031.107 0 .3.212.607.422.909.635.553.391 1.1.785 1.657 1.177.173.124.173.127-.009.248z" class="prefix__cls-1" data-name="Path 119"/>
        <path id="prefix__Path_120" d="M313.8 389.051a.636.636 0 0 1-.65-.074c-.371-.259-.739-.523-1.108-.785-.345-.245-.692-.488-1.035-.737a.629.629 0 0 1-.226-.77.667.667 0 0 1 .68-.425.636.636 0 0 1 .322.122c.716.508 1.433 1.012 2.144 1.525a.675.675 0 0 1-.127 1.144z" class="prefix__cls-1" data-name="Path 120"/>
        <path id="prefix__Path_121" d="M303.9 381.327a.608.608 0 0 1 .751-.012q1.071.752 2.133 1.516a.631.631 0 0 1 .275.628.658.658 0 0 1-.443.544.617.617 0 0 1-.592-.091q-.689-.486-1.373-.974c-.271-.192-.535-.4-.814-.577a.653.653 0 0 1 .051-1.027z" class="prefix__cls-1" data-name="Path 121"/>
    </g>
</svg>
