<svg xmlns="http://www.w3.org/2000/svg" width="16.677" height="14.527" viewBox="0 0 16.677 14.527">
    <defs>
        <style>
            .prefix__cls-1{fill:#fff}
        </style>
    </defs>
    <g id="prefix__Group_6" data-name="Group 6" transform="translate(-2555.039 -379.162)">
        <path id="prefix__Path_13" d="M2567.032 392.159v1.087h.991v.443h-5.118v-.43h.988v-1.078c-.171-.008-.328-.021-.486-.021h-3.542c-.471 0-.647-.176-.648-.636q-.006-3.941 0-7.881c0-.563.3-.832.906-.834h4.471c.141 0 .281-.014.507-.026l-.542-.591.3-.315 1.089 1.136-1.17 1.152-.254-.239.581-.626c-.189-.015-.3-.031-.411-.031-1.476 0-2.952.01-4.427-.008-.436-.006-.606.137-.6.586.014 1.963 0 3.925 0 5.888a3.107 3.107 0 0 0 .042.352c.094.01.165.024.237.024l10.89.037c.248 0 .419-.007.416-.339-.013-2.11-.009-4.221-.012-6.331a1.658 1.658 0 0 0-.03-.193h-3.078v-.475c1.043 0 2.072-.02 3.1.02.16.006.325.269.456.438.05.066.014.2.014.3v7.924c0 .513-.138.663-.652.666-1.165.006-2.331 0-3.5 0zm4.189-1.561h-.5l-10.174-.026c-.98 0-1.016.044-.813 1.094h11.49zm-6.794 2.635h2.1v-1.042h-2.1z" class="prefix__cls-1" data-name="Path 13"/>
        <path id="prefix__Path_14" d="M2561.758 387.567l.531.564-.3.333-1.233-1.243 1.306-1.161.251.23-.615.661c.138.016.217.034.3.034 1.52 0 3.041 0 4.561.007.359 0 .51-.126.509-.488-.005-2.214 0-4.429 0-6.643a1.74 1.74 0 0 0-.034-.228h-11.5v6.822h3.065v.482h-3.073v1.076h3.09v.475c-1.056 0-2.086.013-3.115-.007-.378-.007-.459-.294-.457-.628v-4.562-3.5c0-.494.137-.628.634-.628h11.205c.5 0 .64.132.641.627q.011 3.41 0 6.82c0 .592-.275.833-.9.834h-4.853z" class="prefix__cls-1" data-name="Path 14"/>
        <path id="prefix__Path_15" d="M2563.167 385.343c-.1-.383.043-.491.391-.4.133.363-.006.482-.391.4z" class="prefix__cls-1" data-name="Path 15"/>
        <path id="prefix__Path_16" d="M2562.116 384.933h.422v.412l-.4.019z" class="prefix__cls-1" data-name="Path 16"/>
        <path id="prefix__Path_17" d="M2564.2 385.344v-.392l.4-.047v.439z" class="prefix__cls-1" data-name="Path 17"/>
    </g>
</svg>
