<svg xmlns="http://www.w3.org/2000/svg" width="15.414" height="15.172" viewBox="0 0 15.414 15.172">
    <defs>
        <style>
            .prefix__cls-1{fill:#fff}
        </style>
    </defs>
    <g id="prefix__Group_1" data-name="Group 1" transform="translate(-2402.792 -379.036)">
        <path id="prefix__Path_5" d="M2408.518 394.206h-4.7a.952.952 0 0 1-1.031-1.034v-1.952a4.815 4.815 0 0 1 4.059-4.735 4.89 4.89 0 0 1 .725-.059c.728 0 1.457.007 2.185.016a2.691 2.691 0 0 1 .369.036c.17.024.268.137.248.277s-.14.207-.311.2c-.981-.009-1.966-.077-2.94 0a4.281 4.281 0 0 0-3.839 4.272v1.968a.465.465 0 0 0 .526.523h1.193c.138 0 .177-.045.177-.179-.006-.7 0-1.4 0-2.107v-.233c0-.239.083-.357.249-.359s.246.118.246.358v2.325c0 .146.037.195.19.195q2.665-.008 5.331 0c.149 0 .181-.052.18-.188-.005-.78 0-1.56 0-2.34a.657.657 0 0 1 .008-.154.238.238 0 0 1 .47.021 1.64 1.64 0 0 1 0 .17v2.294c0 .144.035.2.189.2.4-.01.806 0 1.209 0a.467.467 0 0 0 .51-.512c0-.433-.005-.868 0-1.3a.381.381 0 0 1 .11-.253.226.226 0 0 1 .364.173 16.32 16.32 0 0 1-.023 1.64.872.872 0 0 1-.876.734c-.434.006-.868 0-1.3 0z" class="prefix__cls-1" data-name="Path 5"/>
        <path id="prefix__Path_6" d="M2418.2 387.4a3.539 3.539 0 1 1-3.5-3.556 3.557 3.557 0 0 1 3.5 3.556zm-.471-.01a3.065 3.065 0 1 0-3.064 3.072 3.05 3.05 0 0 0 3.068-3.067z" class="prefix__cls-1" data-name="Path 6"/>
        <path id="prefix__Path_7" d="M2408.529 379.036a2.824 2.824 0 0 1 2.569 1.67 3.471 3.471 0 0 1 .138 2.839 3.374 3.374 0 0 1-1.23 1.667 2.542 2.542 0 0 1-3.306-.27 3.678 3.678 0 0 1-.8-4.139 2.911 2.911 0 0 1 2.248-1.753.766.766 0 0 1 .107-.013c.088-.002.181-.001.274-.001zm-2.459 2.984a3.327 3.327 0 0 0 1.062 2.647 2.034 2.034 0 0 0 2.658.1 3.118 3.118 0 0 0 .3-4.6 2.195 2.195 0 0 0-2.71-.324 2.636 2.636 0 0 0-1.31 2.177z" class="prefix__cls-1" data-name="Path 7"/>
        <path id="prefix__Path_8" d="M2414.439 386.433v-.573c0-.168.087-.254.229-.253a.231.231 0 0 1 .238.25c.007.252 0 .506.005.758 0 .174-.045.412.047.5s.329.04.5.043h.759a.23.23 0 0 1 .241.231.227.227 0 0 1-.233.236h-1.115c-.193 0-.2.01-.2.2 0 .357.005.713 0 1.069a.321.321 0 0 1-.1.225.223.223 0 0 1-.368-.186c-.006-.367 0-.733 0-1.1 0-.2-.013-.208-.214-.208h-1.084c-.12 0-.227-.044-.249-.164a.322.322 0 0 1 .067-.235.306.306 0 0 1 .209-.068c.362-.007.723-.008 1.084 0 .142 0 .2-.046.189-.187-.008-.181 0-.362 0-.542z" class="prefix__cls-1" data-name="Path 8"/>
    </g>
</svg>
