<svg xmlns="http://www.w3.org/2000/svg" width="14.544" height="15.864" viewBox="0 0 14.544 15.864">
    <defs>
        <style>
            .prefix__cls-1{fill:#353535}
        </style>
    </defs>
    <g id="prefix__Group_84" data-name="Group 84" transform="translate(-1299.594 -52.923)">
        <path id="prefix__Path_74" d="M1312.421 63.6a1.923 1.923 0 0 0-1.006-.094.752.752 0 0 0-.707.734c-.014.315-.006.632-.007.949v.156h-1.048a.774.774 0 0 0-.794.708 5.376 5.376 0 0 0 .01.739 1.282 1.282 0 0 0 .071.257c-.212.02-.426.044-.639.062a28.309 28.309 0 0 1-3.495.054 17.05 17.05 0 0 1-4.1-.588c-.253-.074-.5-.167-.746-.263a.527.527 0 0 1-.358-.512 14.4 14.4 0 0 1 .052-1.79 3.538 3.538 0 0 1 1.752-2.632 3.7 3.7 0 0 1 1.411-.5.427.427 0 0 1 .316.089 5.146 5.146 0 0 0 1.577.746 5.083 5.083 0 0 0 2.405.08 4.682 4.682 0 0 0 1.793-.758.754.754 0 0 1 .658-.12 3.711 3.711 0 0 1 2.754 2.352c.034.105.06.209.101.331z" class="prefix__cls-1" data-name="Path 74"/>
        <path id="prefix__Path_75" d="M1306.073 60.589a3.833 3.833 0 1 1 3.831-3.841 3.841 3.841 0 0 1-3.831 3.841zm1.8-2.3h-3.6a1.127 1.127 0 0 0 .442.6 2.487 2.487 0 0 0 2.724-.01 1.071 1.071 0 0 0 .434-.593z" class="prefix__cls-1" data-name="Path 75"/>
        <path id="prefix__Path_76" d="M1311.23 65.876v-.353-1.182c0-.212.1-.308.31-.313h.429c.217 0 .314.105.315.326V65.877h1.489c.273 0 .363.092.364.369v.364c0 .226-.1.325-.328.326h-1.525v1.503c0 .258-.094.349-.355.349h-.39a.274.274 0 0 1-.309-.313V66.945c-.058 0-.1-.007-.15-.007h-1.352c-.259 0-.35-.093-.351-.353v-.364c0-.243.1-.341.338-.342h1.515z" class="prefix__cls-1" data-name="Path 76"/>
    </g>
</svg>
