<svg xmlns="http://www.w3.org/2000/svg" width="10.156" height="8.263" viewBox="0 0 10.156 8.263">
    <defs>
        <style>
            .prefix__cls-1{fill:#fff}
        </style>
    </defs>
    <g id="prefix__Group_149" data-name="Group 149" transform="translate(-454.263 -199.099)">
        <path id="prefix__Path_124" d="M463.307 206.992a2.838 2.838 0 0 1-1.6.368 6.55 6.55 0 0 1-2.452-.628 10.646 10.646 0 0 1-2.27-1.379 10.078 10.078 0 0 1-1.31-1.22 6.91 6.91 0 0 1-.94-1.332 3.412 3.412 0 0 1-.46-1.886 2.347 2.347 0 0 1 .076-.431c.022-.082.05-.11.132-.051.336.243.676.481 1.014.722l1 .713.431.307c.033.023.083.045.047.1a.488.488 0 0 0 .031.522 1.532 1.532 0 0 0 .315.408 8.4 8.4 0 0 0 2.774 1.862 1.428 1.428 0 0 0 .536.123.261.261 0 0 0 .271-.135c.031-.064.063-.028.1 0 .28.2.561.39.84.588.512.361 1.021.725 1.532 1.088.16.114.16.117-.008.229-.019.008-.039.019-.059.032z" class="prefix__cls-1" data-name="Path 124"/>
        <path id="prefix__Path_125" d="M464.059 206.365a.589.589 0 0 1-.6-.069c-.343-.239-.683-.483-1.024-.725-.319-.227-.64-.451-.957-.682a.582.582 0 0 1-.209-.711.616.616 0 0 1 .629-.393.6.6 0 0 1 .3.113c.661.469 1.324.935 1.981 1.41a.623.623 0 0 1-.12 1.057z" class="prefix__cls-1" data-name="Path 125"/>
        <path id="prefix__Path_126" d="M454.9 199.225a.562.562 0 0 1 .695-.011q.99.694 1.972 1.4a.585.585 0 0 1 .254.581.608.608 0 0 1-.41.5.573.573 0 0 1-.548-.083l-1.269-.9c-.25-.178-.494-.367-.752-.533a.6.6 0 0 1 .047-.949z" class="prefix__cls-1" data-name="Path 126"/>
    </g>
</svg>
