<svg xmlns="http://www.w3.org/2000/svg" width="15.329" height="12.471" viewBox="0 0 15.329 12.471">
    <defs>
        <style>
            .prefix__cls-1{fill:#353535}
        </style>
    </defs>
    <g id="prefix__Group_83" data-name="Group 83" transform="translate(-1258.501 -54.238)">
        <path id="prefix__Path_70" d="M1272.15 66.149a4.284 4.284 0 0 1-2.42.556 9.872 9.872 0 0 1-3.7-.947 16.122 16.122 0 0 1-3.426-2.082 15.177 15.177 0 0 1-1.978-1.842 10.4 10.4 0 0 1-1.417-2.009 5.143 5.143 0 0 1-.7-2.847 3.6 3.6 0 0 1 .114-.65c.033-.124.076-.167.2-.077.507.367 1.02.726 1.53 1.089l1.517 1.076c.217.154.435.308.651.463.049.036.124.068.071.149a.734.734 0 0 0 .046.788 2.362 2.362 0 0 0 .476.615 12.667 12.667 0 0 0 4.185 2.81 2.173 2.173 0 0 0 .81.186.394.394 0 0 0 .409-.2c.048-.1.095-.043.149 0 .423.3.848.589 1.269.886q1.157.819 2.311 1.643c.242.172.242.176-.012.346-.025.011-.055.029-.085.047z" class="prefix__cls-1" data-name="Path 70"/>
        <path id="prefix__Path_71" d="M1273.285 65.2a.883.883 0 0 1-.906-.1c-.518-.361-1.031-.729-1.546-1.094-.482-.342-.966-.681-1.444-1.028a.878.878 0 0 1-.316-1.075.933.933 0 0 1 .949-.593.9.9 0 0 1 .45.171c1 .708 2 1.411 2.991 2.128a.941.941 0 0 1-.178 1.591z" class="prefix__cls-1" data-name="Path 71"/>
        <path id="prefix__Path_72" d="M1259.466 54.428a.846.846 0 0 1 1.048-.017q1.494 1.049 2.976 2.114a.881.881 0 0 1 .383.877.917.917 0 0 1-.617.758.863.863 0 0 1-.827-.126q-.96-.678-1.916-1.359c-.378-.268-.745-.554-1.135-.805a.91.91 0 0 1 .071-1.432c.021-.012.04-.025.017-.01z" class="prefix__cls-1" data-name="Path 72"/>
    </g>
</svg>
