<svg xmlns="http://www.w3.org/2000/svg" width="11.001" height="9.367" viewBox="0 0 11.001 9.367">
    <defs>
        <style>
            .prefix__cls-1{fill:#fff}
        </style>
    </defs>
    <g id="prefix__Group_150" data-name="Group 150" transform="translate(-499.515 -199.099)">
        <path id="prefix__Path_127" d="M510.516 205.24a4.622 4.622 0 0 1-.414.812 1.413 1.413 0 0 1-1.144.508h-.386c0 .536.007 1.047-.005 1.558a1.35 1.35 0 0 1-.106.348 1.127 1.127 0 0 1-.361-.127c-.653-.539-1.292-1.1-1.946-1.633a.666.666 0 0 0-.388-.14c-1.458-.009-2.917-.03-4.374 0a1.666 1.666 0 0 1-1.877-1.329V200.4a.9.9 0 0 0 .044-.112 1.5 1.5 0 0 1 1.5-1.185c2.636-.006 5.273 0 7.909 0a1.51 1.51 0 0 1 1.026.382 1.741 1.741 0 0 1 .521.966zm-2.411 2.529a.3.3 0 0 0 .024-.063c0-.423.009-.847.007-1.27 0-.22.079-.338.318-.322.162.011.326 0 .489 0a1.1 1.1 0 0 0 1.13-1.123v-4.3a1.1 1.1 0 0 0-1.148-1.156H501.203a1.112 1.112 0 0 0-1.242 1.231v4.156a1.1 1.1 0 0 0 1.2 1.2c1.54 0 3.08.005 4.62-.005a.9.9 0 0 1 .657.24c.537.474 1.097.931 1.667 1.412z" class="prefix__cls-1" data-name="Path 127"/>
        <path id="prefix__Path_128" d="M505.022 201.168h3.4a.5.5 0 0 1 .217.01c.074.04.176.126.173.187a.367.367 0 0 1-.163.224c-.05.036-.142.017-.215.017h-6.819c-.073 0-.163.021-.215-.014-.077-.05-.175-.142-.174-.214s.108-.153.185-.2c.047-.03.127-.008.192-.008z" class="prefix__cls-1" data-name="Path 128"/>
        <path id="prefix__Path_129" d="M505.016 203.041h-3.422c-.065 0-.147.022-.191-.008-.078-.053-.183-.14-.182-.212s.1-.16.181-.213c.044-.031.126-.009.191-.009h6.844c.065 0 .147-.022.192.008.078.054.182.14.182.213s-.1.16-.181.213c-.045.03-.127.008-.192.008z" class="prefix__cls-1" data-name="Path 129"/>
        <path id="prefix__Path_130" d="M505.018 204.473h-3.4c-.073 0-.161.022-.216-.01-.078-.046-.183-.133-.184-.2s.1-.161.179-.209c.054-.034.143-.014.216-.014h6.814c.165.009.382-.039.385.217s-.214.216-.379.217q-1.705.001-3.415-.001z" class="prefix__cls-1" data-name="Path 130"/>
    </g>
</svg>
