<svg xmlns="http://www.w3.org/2000/svg" width="10.766" height="9.427" viewBox="0 0 10.766 9.427">
    <defs>
        <style>
            .prefix__cls-1{fill:#fff}
        </style>
    </defs>
    <g id="prefix__Group_96" data-name="Group 96" transform="translate(-706.589 -388.314)">
        <path id="prefix__Path_102" d="M717.355 388.548c-.271.668-.547 1.334-.814 2.005q-1.254 3.156-2.5 6.315c-.145.367-.262.415-.615.247-1.076-.512-2.151-1.027-3.25-1.551l4.371-4.4-.042-.047-5.012 4.119c-.912-.434-1.816-.863-2.717-1.3-.073-.035-.123-.117-.184-.177v-.191a1.288 1.288 0 0 1 .246-.212l10.181-5a.249.249 0 0 1 .339.045z" class="prefix__cls-1" data-name="Path 102"/>
        <path id="prefix__Path_103" d="M710.176 396.2l1.459.693c-.407.277-.79.546-1.182.8-.151.1-.272.017-.275-.18-.006-.413-.002-.838-.002-1.313z" class="prefix__cls-1" data-name="Path 103"/>
    </g>
</svg>
