<svg xmlns="http://www.w3.org/2000/svg" width="9.135" height="9.142" viewBox="0 0 9.135 9.142">
    <defs>
        <style>
            .prefix__cls-1{fill:#fff}
        </style>
    </defs>
    <g id="prefix__Group_100" data-name="Group 100" transform="translate(-251.049 -381.083)">
        <path id="prefix__Path_110" d="M254.517 388.532a4.269 4.269 0 0 0-.677-1.43 2.294 2.294 0 1 1 4.042-1.836 2.135 2.135 0 0 1-.771 2.113.769.769 0 0 0-.332.765c.043.293-.069.4-.37.393-.635-.017-1.269-.005-1.892-.005zm1.1-.62h.292c.173.005.277-.07.247-.25-.048-.3.119-.434.347-.58a1.626 1.626 0 0 0 .8-1.589 1.674 1.674 0 0 0-1.473-1.53 1.7 1.7 0 0 0-1.812 1.115 1.66 1.66 0 0 0 .74 2.013.531.531 0 0 1 .317.567c-.021.176.072.258.248.254.101-.003.198-.001.295 0z" class="prefix__cls-1" data-name="Path 110"/>
        <path id="prefix__Path_111" d="M255.656 389.055c.3 0 .6.009.906 0 .232-.008.265.125.262.308s-.01.342-.252.31c-.218-.028-.294.089-.411.259a.744.744 0 0 1-.548.3.769.769 0 0 1-.521-.337c-.1-.148-.156-.237-.33-.215-.249.032-.277-.118-.281-.316-.005-.22.074-.315.3-.3.292.001.583-.009.875-.009z" class="prefix__cls-1" data-name="Path 111"/>
        <path id="prefix__Path_112" d="M259.619 385.629c.249.018.571-.038.565.322s-.32.32-.565.318-.591.048-.588-.323.35-.293.588-.317z" class="prefix__cls-1" data-name="Path 112"/>
        <path id="prefix__Path_113" d="M259.147 382.842a1.282 1.282 0 0 1-.722.712c-.191 0-.38-.224-.274-.371a2.541 2.541 0 0 1 .623-.614c.153-.105.373.085.373.273z" class="prefix__cls-1" data-name="Path 113"/>
        <path id="prefix__Path_114" d="M253.181 383.136a1.215 1.215 0 0 1-.692-.7.288.288 0 0 1 .432-.258 2.38 2.38 0 0 1 .526.515.288.288 0 0 1-.266.443z" class="prefix__cls-1" data-name="Path 114"/>
        <path id="prefix__Path_115" d="M256.2 381.714c-.017.194.077.53-.293.53s-.3-.325-.309-.567a2.048 2.048 0 0 1 .006-.26c.016-.191.091-.347.312-.333s.284.167.284.362z" class="prefix__cls-1" data-name="Path 115"/>
        <path id="prefix__Path_116" d="M251.613 385.7h-.032c-.237-.006-.529.025-.532-.311s.294-.3.528-.3h.29c.2 0 .374.1.334.294-.025.123-.205.227-.334.31-.061.039-.168.007-.254.007z" class="prefix__cls-1" data-name="Path 116"/>
    </g>
</svg>
