<svg xmlns="http://www.w3.org/2000/svg" width="5.125" height="8.932" viewBox="0 0 5.125 8.932">
    <defs>
        <style>
            .prefix__cls-1{fill:#fff}
        </style>
    </defs>
    <g id="prefix__Group_101" data-name="Group 101" transform="translate(-279.638 -381.145)">
        <path id="prefix__Path_117" d="M280.479 384.257v-1.379a1.721 1.721 0 0 1 3.409-.345 2.623 2.623 0 0 1 .032.516v2.6a1.72 1.72 0 0 1-3.439.013c-.004-.462-.002-.936-.002-1.405z" class="prefix__cls-1" data-name="Path 117"/>
        <path id="prefix__Path_118" d="M282.547 388.33v.986h.105c.248 0 .5-.007.742.006a.478.478 0 0 1 .448.466v.289H280.4c-.006-.231-.037-.47.175-.645a.519.519 0 0 1 .34-.117h.977a.289.289 0 0 0 .033 0v-.988c-.093-.01-.186-.017-.277-.031a2.3 2.3 0 0 1-1.745-1.23 2.208 2.208 0 0 1-.269-1.07 1.384 1.384 0 0 1 .534-1.115v.764a2.027 2.027 0 0 0 1.859 2.017 2.025 2.025 0 0 0 2.118-1.482 1.922 1.922 0 0 0 .07-.512V384.881l.057.046a1.358 1.358 0 0 1 .474.919 2.1 2.1 0 0 1-.2 1.1 2.311 2.311 0 0 1-1.537 1.3c-.145.035-.301.054-.462.084z" class="prefix__cls-1" data-name="Path 118"/>
    </g>
</svg>
