<svg xmlns="http://www.w3.org/2000/svg" width="21.439" height="21.439" viewBox="0 0 21.439 21.439">
    <defs>
        <clipPath id="prefix__clip-path">
            <circle id="prefix__Ellipse_57" cx="10.72" cy="10.72" r="10.72" data-name="Ellipse 57" transform="translate(14.302 53.235)" style="fill:none"/>
        </clipPath>
    </defs>
    <g id="prefix__Group_153" data-name="Group 153" transform="translate(-14.302 -53.235)">
        <path id="prefix__Path_100" d="M21.683 63.174H30.184c.589 0 .937.294.942.774s-.35.777-.934.778q-4 .006-8 .005H21.6c.123.153.192.258.279.345q1.23 1.235 2.466 2.464a3.379 3.379 0 0 1 .251.257.8.8 0 0 1-.047 1.109.719.719 0 0 1-1.059-.015q-2.228-2.194-4.422-4.425A.711.711 0 0 1 19.1 63.4q2.161-2.188 4.349-4.353a.75.75 0 0 1 1.138-.021.8.8 0 0 1-.054 1.147c-.825.843-1.663 1.673-2.5 2.5a4.182 4.182 0 0 1-.449.338z" data-name="Path 100" style="fill:#3a3a3a"/>
        <g id="prefix__Group_95" data-name="Group 95">
            <g id="prefix__Group_94" data-name="Group 94">
                <path id="prefix__Path_101" d="M36.563 63.182v1.641c-.038.25-.069.5-.116.751a11.425 11.425 0 0 1-8.459 9.507 20.881 20.881 0 0 1-2.094.411H24.15a2.613 2.613 0 0 0-.345-.081 11.439 11.439 0 0 1-9.82-8.156c-.225-.76-.339-1.552-.505-2.329v-2.052a1.186 1.186 0 0 0 .081-.237 11.482 11.482 0 0 1 8.589-9.848c.655-.171 1.333-.255 2-.379h1.744a2.463 2.463 0 0 0 .342.082 11.5 11.5 0 0 1 9.913 8.495c.182.72.278 1.463.414 2.195zm-21.526.685a9.974 9.974 0 1 0 9.856-9.9 9.99 9.99 0 0 0-9.856 9.9z" data-name="Path 101" style="fill:#bfbfbf"/>
            </g>
        </g>
    </g>
</svg>
