<svg xmlns="http://www.w3.org/2000/svg" width="9.92" height="8.64" viewBox="0 0 9.92 8.64">
    <defs>
        <style>
            .prefix__cls-1{fill:#fff}
        </style>
    </defs>
    <g id="prefix__Group_151" data-name="Group 151" transform="translate(-330.446 -382.057)">
        <path id="prefix__Path_131" d="M337.579 389.787v.647h.59v.263h-3.044v-.256h.587v-.641c-.1 0-.2-.012-.289-.013h-2.107c-.279 0-.384-.1-.385-.379v-4.687c0-.335.178-.5.539-.5h2.66c.083 0 .167-.008.3-.015l-.322-.352.178-.187.648.675-.7.686-.151-.142.346-.373c-.113-.009-.179-.018-.245-.018-.878 0-1.755.006-2.633-.005-.259 0-.36.082-.358.349.009 1.167 0 2.335 0 3.5a1.8 1.8 0 0 0 .025.209c.056.006.1.014.141.015l6.477.022c.148 0 .249 0 .248-.2-.008-1.255-.005-2.511-.007-3.766a1.063 1.063 0 0 0-.018-.115h-1.831v-.282c.62 0 1.233-.012 1.843.012.1 0 .194.16.271.26.031.039.009.119.009.181v4.714c0 .305-.082.394-.387.4h-2.081zm2.492-.928h-.3l-6.052-.015c-.583 0-.6.026-.483.651h6.834zm-4.041 1.567h1.248v-.62h-1.248z" class="prefix__cls-1" data-name="Path 131"/>
        <path id="prefix__Path_132" d="M334.442 387.056l.316.335-.175.2-.734-.739.777-.69.149.136-.366.393c.083.01.13.021.177.021h2.714c.213 0 .3-.075.3-.29v-3.952a.957.957 0 0 0-.02-.135h-6.842v4.058h1.822v.286h-1.827v.64h1.837v.283c-.627 0-1.24.007-1.852-.005-.225 0-.273-.175-.272-.373v-2.713-2.082c0-.294.082-.373.377-.373h6.665c.3 0 .381.078.381.372q.006 2.029 0 4.057c0 .352-.163.495-.533.5H334.454z" class="prefix__cls-1" data-name="Path 132"/>
        <path id="prefix__Path_133" d="M335.281 385.733c-.06-.228.025-.292.232-.238.079.216-.004.286-.232.238z" class="prefix__cls-1" data-name="Path 133"/>
        <path id="prefix__Path_134" d="M334.655 385.489h.252v.245l-.24.012z" class="prefix__cls-1" data-name="Path 134"/>
        <path id="prefix__Path_135" d="M335.894 385.733v-.233l.236-.028v.261z" class="prefix__cls-1" data-name="Path 135"/>
    </g>
</svg>
