<svg xmlns="http://www.w3.org/2000/svg" width="49.049" height="49.049" viewBox="0 0 49.049 49.049">
    <g id="prefix__Group_154" data-name="Group 154" transform="translate(-617.456 -62.239)">
        <circle id="prefix__Ellipse_8" cx="24.524" cy="24.524" r="24.524" data-name="Ellipse 8" transform="translate(617.456 62.239)" style="opacity:.21"/>
        <path id="prefix__Path_41" d="M2143.183 89.484h-9.974a2.72 2.72 0 1 1-.121-5.438c1.334-.026 2.668 0 4 0h6.093v-.489c0-3.162-.008-6.324 0-9.486a2.72 2.72 0 1 1 5.436-.073c.017 1.694 0 3.389 0 5.083v4.6c0 .1.009.209.016.362h9.926a2.733 2.733 0 0 1 2.75 1.906 2.685 2.685 0 0 1-2.129 3.481 10.479 10.479 0 0 1-1.557.058q-4.263.006-8.525 0h-.481v9.974a2.715 2.715 0 0 1-5.418.353c-.05-.61-.025-1.227-.025-1.84V90.01z" data-name="Path 41" transform="translate(-1503.927)" style="fill:#fff"/>
    </g>
</svg>
