<svg xmlns="http://www.w3.org/2000/svg" width="8.624" height="15.105" viewBox="0 0 8.624 15.105">
    <defs>
        <style>
            .prefix__cls-1{fill:#fff}
        </style>
    </defs>
    <g id="prefix__Group_10" data-name="Group 10" transform="translate(-2670.2 -379.039)">
        <g id="prefix__Group_9" data-name="Group 9">
            <path id="prefix__Path_20" d="M2677.748 384.44v2.154a3.149 3.149 0 0 1-.849 2.185 3.2 3.2 0 0 1-3.923.659 3.112 3.112 0 0 1-1.7-2.845q-.024-2.148 0-4.295a3.121 3.121 0 0 1 1.735-2.882 3.233 3.233 0 0 1 4.733 2.883l.004 2.141zm-5.928 0h-.005c0 .735-.01 1.469 0 2.2a2.692 2.692 0 0 0 5.384 0c.032-1.472.015-2.946 0-4.419a2.541 2.541 0 0 0-.849-1.911 2.648 2.648 0 0 0-3.189-.369 2.527 2.527 0 0 0-1.339 2.142c-.037.785-.002 1.571-.002 2.355z" class="prefix__cls-1" data-name="Path 20"/>
            <path id="prefix__Path_21" d="M2674.789 390.91v2.69c.053 0 .1.01.156.01h1.953a.276.276 0 0 1 .308.268c0 .165-.111.27-.3.27h-4.78c-.188 0-.308-.106-.307-.267a.273.273 0 0 1 .306-.27h2.108v-2.692c-.219-.036-.441-.061-.658-.11a4.292 4.292 0 0 1-3.343-3.714c-.017-.143-.026-.289-.03-.433 0-.208.1-.334.266-.334s.266.126.27.334a3.777 3.777 0 0 0 7.4 1.006 3.914 3.914 0 0 0 .155-1.03.28.28 0 0 1 .268-.31c.161 0 .271.125.267.32a4.224 4.224 0 0 1-1.328 3.064 4.274 4.274 0 0 1-2.633 1.192z" class="prefix__cls-1" data-name="Path 21"/>
        </g>
    </g>
</svg>
