<svg xmlns="http://www.w3.org/2000/svg" width="12.767" height="12.767" viewBox="0 0 12.767 12.767">
    <g id="prefix__Group_85" data-name="Group 85" transform="translate(-1378.536 -99.491)">
        <circle id="prefix__Ellipse_51" cx="6.384" cy="6.384" r="6.384" data-name="Ellipse 51" transform="translate(1378.536 99.491)"/>
        <path id="prefix__Path_77" d="M1384.21 106.583h-2.596a.708.708 0 1 1-.031-1.415c.347-.007.694 0 1.041 0h1.586v-.127-2.469a.708.708 0 1 1 1.415-.019c.005.441 0 .882 0 1.323v1.2c0 .027 0 .054.005.094h2.583a.71.71 0 0 1 .716.5.7.7 0 0 1-.554.906 2.732 2.732 0 0 1-.4.015h-2.345v2.6a.707.707 0 0 1-1.411.092c-.013-.159-.006-.319-.006-.479v-2.21z" data-name="Path 77" style="fill:#fff"/>
    </g>
</svg>
