<svg xmlns="http://www.w3.org/2000/svg" width="20.111" height="20.114" viewBox="0 0 20.111 20.114">
    <defs>
        <style>
            .prefix__cls-1{fill:#273c7d}
        </style>
    </defs>
    <g id="prefix__Group_152" data-name="Group 152" transform="translate(-693.481 -9.143)">
        <path id="prefix__Path_98" d="M703.549 9.143a10.057 10.057 0 1 1-10.067 9.892 10.067 10.067 0 0 1 10.067-9.892zm-.021 1.55a8.5 8.5 0 1 0 8.51 8.409 8.515 8.515 0 0 0-8.51-8.409z" class="prefix__cls-1" data-name="Path 98"/>
        <path id="prefix__Path_99" d="M703.532 23.217c-.9 0-1.793-.016-2.689.005a1.3 1.3 0 0 1-1.334-1.326c.015-1.8 0-3.606.006-5.409a1.269 1.269 0 0 1 1.33-1.313h5.394a1.27 1.27 0 0 1 1.319 1.308c0 1.808-.009 3.617.006 5.425a1.294 1.294 0 0 1-1.327 1.315c-.902-.022-1.803-.005-2.705-.005z" class="prefix__cls-1" data-name="Path 99"/>
    </g>
</svg>
