<svg xmlns="http://www.w3.org/2000/svg" width="17.299" height="14.947" viewBox="0 0 17.299 14.947">
    <defs>
        <style>
            .prefix__cls-1{fill:#fff}
        </style>
    </defs>
    <g id="prefix__Group_3" data-name="Group 3" transform="translate(-2453.796 -378.952)">
        <g id="prefix__Group_2" data-name="Group 2">
            <path id="prefix__Path_9" d="M2457.159 386.23a3.433 3.433 0 1 1 5.466.006 5.38 5.38 0 0 1 1.279.9 6.5 6.5 0 0 1 1.782 3.15 10.231 10.231 0 0 1 .308 2.55.358.358 0 0 1-.226.356 5 5 0 0 1-1.219.363 23.1 23.1 0 0 1-3.921.332c-1.163.023-2.324 0-3.484-.086a13.073 13.073 0 0 1-2.541-.395 5.3 5.3 0 0 1-.629-.24.281.281 0 0 1-.178-.271 9.261 9.261 0 0 1 .614-3.555 5.907 5.907 0 0 1 2.285-2.841c.15-.099.305-.178.464-.269zm2.722 7.073v-.03a29.313 29.313 0 0 0 3.6-.181 9.293 9.293 0 0 0 1.776-.36c.086-.028.116-.067.107-.156-.05-.483-.073-.97-.15-1.449A6.326 6.326 0 0 0 2464 388.2a4.584 4.584 0 0 0-2.012-1.555.316.316 0 0 1-.1-.53 2.76 2.76 0 0 0 .72-2.65 2.788 2.788 0 0 0-2.328-2.094 2.736 2.736 0 0 0-2.736 1.25 2.794 2.794 0 0 0 .336 3.48.314.314 0 0 1-.127.557 3.79 3.79 0 0 0-1.024.572 5.655 5.655 0 0 0-1.95 2.935 9.393 9.393 0 0 0-.363 2.283c-.014.248-.013.25.228.32a11.006 11.006 0 0 0 2.355.391c.961.069 1.922.099 2.882.141z" class="prefix__cls-1" data-name="Path 9"/>
            <path id="prefix__Path_10" d="M2468.165 383.8c.336.25.677.47.98.734a5.245 5.245 0 0 1 1.417 2.078 8.284 8.284 0 0 1 .533 3.1.314.314 0 0 1-.205.293 4.72 4.72 0 0 1-1.257.36 16.489 16.489 0 0 1-2.294.232.312.312 0 1 1-.015-.62 13.465 13.465 0 0 0 2.936-.4 1 1 0 0 1 .106-.031c.091-.018.109-.073.1-.16a7.955 7.955 0 0 0-.345-2.149 4.733 4.733 0 0 0-2.094-2.758 3.691 3.691 0 0 0-.476-.226.316.316 0 0 1-.122-.56 2.36 2.36 0 0 0 .622-1.151 2.428 2.428 0 0 0-2.6-2.958 2.348 2.348 0 0 0-1.96 1.351c-.026.051-.046.105-.075.154a.306.306 0 0 1-.4.13.3.3 0 0 1-.159-.38 2.755 2.755 0 0 1 .71-1.047 2.952 2.952 0 0 1 2.527-.81 2.914 2.914 0 0 1 2.379 1.807 2.963 2.963 0 0 1-.28 2.955z" class="prefix__cls-1" data-name="Path 10"/>
        </g>
    </g>
</svg>
