<svg xmlns="http://www.w3.org/2000/svg" width="21.622" height="15.379" viewBox="0 0 21.622 15.379">
    <defs>
        <style>
            .prefix__cls-1{fill:#fff}
        </style>
    </defs>
    <g id="prefix__Group_5" data-name="Group 5" transform="translate(-2499.836 -379.008)">
        <g id="prefix__Group_4" data-name="Group 4">
            <path id="prefix__Path_11" d="M2510.664 379.008h8.734a1.983 1.983 0 0 1 2.058 2.038v6.86q0 2.215.005 4.432a1.971 1.971 0 0 1-1.315 1.924 2.105 2.105 0 0 1-.685.12q-4.677.011-9.354 0h-8.2a1.992 1.992 0 0 1-2.068-2.063v-6.958c0-.292.121-.465.353-.51a.416.416 0 0 1 .49.322 1.486 1.486 0 0 1 .015.276c0 2.276.013 4.552-.006 6.828a1.217 1.217 0 0 0 1.263 1.26c2.977-.017 5.953 0 8.93 0h8.522a1.141 1.141 0 0 0 1.2-1.2v-8.36-2.916a1.136 1.136 0 0 0-1.2-1.2h-17.532a1.133 1.133 0 0 0-1.171 1.157c-.006.462 0 .924 0 1.385a.414.414 0 0 1-.277.42.379.379 0 0 1-.447-.1.53.53 0 0 1-.126-.3c-.009-.532-.024-1.066.012-1.6a1.964 1.964 0 0 1 1.957-1.814q4.417-.003 8.842-.001z" class="prefix__cls-1" data-name="Path 11"/>
            <path id="prefix__Path_12" d="M2510.439 387.154a5.222 5.222 0 0 1-2.927-1.054c-1.607-1.15-3.228-2.281-4.843-3.42l-1-.7a.431.431 0 0 1-.142-.609.426.426 0 0 1 .63-.09q1.319.924 2.634 1.855c1.109.782 2.224 1.556 3.326 2.349a4.353 4.353 0 0 0 5.14-.055c1.935-1.4 3.9-2.758 5.853-4.136a.455.455 0 0 1 .5-.06.425.425 0 0 1 .016.74q-.743.531-1.489 1.054c-1.527 1.075-3.05 2.156-4.584 3.223a5.154 5.154 0 0 1-3.114.903z" class="prefix__cls-1" data-name="Path 12"/>
        </g>
    </g>
</svg>
