<svg xmlns="http://www.w3.org/2000/svg" width="11.69" height="15.592" viewBox="0 0 11.69 15.592">
    <defs>
        <style>
            .prefix__cls-1{fill:#fff}
        </style>
    </defs>
    <g id="prefix__Group_8" data-name="Group 8" transform="translate(-2617.236 -378.687)">
        <g id="prefix__Group_7" data-name="Group 7">
            <path id="prefix__Path_18" d="M2619.192 384.538v-1.97a3.847 3.847 0 0 1 2.914-3.747 3.779 3.779 0 0 1 3.693.982.484.484 0 1 1-.667.689 2.931 2.931 0 0 0-4.937 1.608 4.977 4.977 0 0 0-.046.855c-.007.517 0 1.033 0 1.571.089 0 .165.011.242.012h7.034a1.431 1.431 0 0 1 1.424 1.016 2.022 2.022 0 0 1 .073.576c0 2.187-.017 4.373.006 6.559a1.525 1.525 0 0 1-1.589 1.589c-2.85-.017-5.7-.006-8.551-.006a1.454 1.454 0 0 1-1.545-1.546v-4.8c0-.615-.007-1.23 0-1.845a1.457 1.457 0 0 1 1.535-1.539zm3.874 8.771h4.258c.467 0 .639-.171.639-.637v-4.934q0-.831-.005-1.663a.516.516 0 0 0-.572-.58h-5.793c-.962 0-1.925 0-2.887.007a.489.489 0 0 0-.509.524v6.67c0 .434.175.61.608.61z" class="prefix__cls-1" data-name="Path 18"/>
            <path id="prefix__Path_19" d="M2621.138 389.394a1.943 1.943 0 1 1 1.946 1.954 1.947 1.947 0 0 1-1.946-1.954zm1.935-.966a.978.978 0 1 0 .985.966.97.97 0 0 0-.985-.966z" class="prefix__cls-1" data-name="Path 19"/>
        </g>
    </g>
</svg>
