<svg xmlns="http://www.w3.org/2000/svg" xmlns:xlink="http://www.w3.org/1999/xlink" width="116.155" height="112.5" viewBox="0 0 116.155 112.5">
  <defs>
    <clipPath id="clip-Artboard_2">
      <rect width="116.155" height="112.5"/>
    </clipPath>
  </defs>
  <g id="Artboard_2" data-name="Artboard 2" clip-path="url(#clip-Artboard_2)">
    <rect width="116.155" height="112.5" fill="#fff"/>
    <path id="Path_13" data-name="Path 13" d="M185.775,105.37V60.535a2.882,2.882,0,0,0-2.883-2.882h-8.038a2.883,2.883,0,0,1-1.94-5.015L222.1,7.881a2.883,2.883,0,0,1,3.889.008L237.846,18.77a2.883,2.883,0,0,0,4.832-2.124h0a2.883,2.883,0,0,1,2.883-2.883H261.23a2.882,2.882,0,0,1,2.882,2.883V39.362a2.879,2.879,0,0,0,.845,2.038L275.65,52.094a2.883,2.883,0,0,1-2.038,4.921h-7.893a2.882,2.882,0,0,0-2.882,2.882v42.59a2.883,2.883,0,0,1-2.883,2.883H238.416a2.883,2.883,0,0,1-2.883-2.883V77.632a2.882,2.882,0,0,0-2.882-2.883h-16.18a2.882,2.882,0,0,0-2.882,2.883v24.855a2.883,2.883,0,0,1-2.883,2.883H185.775" transform="translate(-166.155)" fill="none" stroke="#6d6d6d" stroke-linecap="round" stroke-miterlimit="10" stroke-width="7"/>
  </g>
</svg>
