<svg xmlns="http://www.w3.org/2000/svg" xmlns:xlink="http://www.w3.org/1999/xlink" width="116.155" height="112.5" viewBox="0 0 116.155 112.5">
  <defs>
    <clipPath id="clip-Artboard_5">
      <rect width="116.155" height="112.5"/>
    </clipPath>
  </defs>
  <g id="Artboard_5" data-name="Artboard 5" clip-path="url(#clip-Artboard_5)">
    <rect width="116.155" height="112.5" fill="#fff"/>
    <g id="Group_3" data-name="Group 3" transform="translate(-664.621)">
      <path id="Path_8" data-name="Path 8" d="M710.561,75.658c4.768-.064,10.415,1.643,15.689,4.676,1.67.961,3.279,2.028,4.923,3.034a1.437,1.437,0,0,1,.749,1.343,29.58,29.58,0,0,1-.818,8.65c-1.106,3.971-3.665,6.948-6.713,9.542a26.944,26.944,0,0,1-19.71,6.539,24.455,24.455,0,0,1-14.132-5.038c-7.763-6.178-6.645-14.638-2.188-20.509,2.677-3.526,6.52-5.382,10.617-6.727A36.382,36.382,0,0,1,710.561,75.658Z" fill="#6d6d6d"/>
      <path id="Path_9" data-name="Path 9" d="M729.376,3c.4.524.8,1.046,1.2,1.573a123.223,123.223,0,0,0,13.742,14.782c4.176,4,8.457,7.909,11.909,12.6a20.256,20.256,0,0,1,4.243,10.114,17.071,17.071,0,0,1-1.96,9.306A41.638,41.638,0,0,1,750.436,62a.429.429,0,0,1-.415.088c.172-.266.341-.533.516-.8A21.085,21.085,0,0,0,754.3,51.36c.463-5.486-1.786-9.818-5.778-13.372-3.84-3.419-8.468-5.173-13.415-6.221-.9-.189-1.793-.369-2.865-.589-.059,1.3-.143,2.533-.165,3.769-.118,6.579-.285,13.158-.312,19.738-.038,9.064.034,18.128.059,27.192,0,.353,0,.707,0,1.328-1.6-1.081-3.005-1.986-4.348-2.975a1.49,1.49,0,0,1-.347-1.068c.013-10.84.016-21.681.087-32.521.046-7.07.12-14.142.316-21.21A166.469,166.469,0,0,1,729.376,3Z" fill="#6d6d6d"/>
    </g>
  </g>
</svg>
