<svg xmlns="http://www.w3.org/2000/svg" width="8.26" height="8.977" viewBox="0 0 8.26 8.977">
    <path id="prefix__Path_109" d="M362.638 387.8a2.318 2.318 0 0 1-.01 1.422 1.377 1.377 0 0 1-1.431.919c-.431-.008-.693-.287-.864-.927-.053-.2-.085-.4-.14-.593a1 1 0 0 0-.147-.351c-.364-.463-.744-.913-1.113-1.372a.587.587 0 0 0-.532-.226c-.321.015-.643 0-.964 0-.7 0-.887-.191-.887-.9v-2.958c0-.785.182-.988.961-.963a6.169 6.169 0 0 0 2.515-.371 5.877 5.877 0 0 1 2.66-.281 1.247 1.247 0 0 1 1.131.683 16.566 16.566 0 0 1 .558 1.878 3.546 3.546 0 0 1 .066.373c.043.25.083.5.128.751a2.2 2.2 0 0 0 .1.485 1.388 1.388 0 0 1-1.286 2h-.885c.057.172.102.302.14.431zm-4.031-1.8a1.132 1.132 0 0 1 .907.548 10.931 10.931 0 0 1 1.031 1.31 5.791 5.791 0 0 1 .415 1.133c.067.191.049.455.331.484a.669.669 0 0 0 .69-.469 1.729 1.729 0 0 0-.087-1.221c-.141-.331-.259-.671-.408-1.059.636 0 1.2-.009 1.766 0a.789.789 0 0 0 .8-.418.844.844 0 0 0-.149-.9.383.383 0 0 1-.046-.293.956.956 0 0 0-.1-.859.871.871 0 0 1-.054-.315 1.648 1.648 0 0 0-.124-.64 1 1 0 0 1-.183-.615.74.74 0 0 0-.662-.783 5.5 5.5 0 0 0-2.715.295c-.455.15-.918.273-1.418.42zm-1.015-2.761a.5.5 0 0 0 .316-.352.3.3 0 0 0-.381-.319c-.14.037-.246.2-.367.31l.016.146c.14.076.298.241.416.216z" data-name="Path 109" transform="translate(-356.549 -381.165)" style="fill:#fff"/>
</svg>
