<svg xmlns="http://www.w3.org/2000/svg" width="8.261" height="8.978" viewBox="0 0 8.261 8.978">
    <path id="prefix__Path_123" d="M412.832 201.512h.885a1.388 1.388 0 0 1 1.286 2 2.1 2.1 0 0 0-.1.486c-.045.25-.086.5-.128.751a3.574 3.574 0 0 1-.066.372 16.78 16.78 0 0 1-.559 1.878 1.243 1.243 0 0 1-1.13.683 5.855 5.855 0 0 1-2.661-.281 6.149 6.149 0 0 0-2.515-.37c-.778.025-.961-.178-.961-.964v-2.958c0-.713.188-.9.887-.9.322 0 .644-.012.965 0a.588.588 0 0 0 .532-.226c.369-.459.749-.909 1.113-1.372a1.033 1.033 0 0 0 .147-.351c.055-.2.087-.4.139-.593.171-.641.434-.92.865-.928a1.376 1.376 0 0 1 1.43.92 2.322 2.322 0 0 1 .011 1.421zm-3.894 4.753c.5.147.963.27 1.417.42a5.514 5.514 0 0 0 2.716.295.74.74 0 0 0 .661-.783 1 1 0 0 1 .184-.615 1.648 1.648 0 0 0 .123-.64.922.922 0 0 1 .054-.316.952.952 0 0 0 .1-.859.384.384 0 0 1 .046-.293.844.844 0 0 0 .148-.9.786.786 0 0 0-.8-.418c-.565.011-1.131 0-1.766 0 .148-.388.266-.729.408-1.059a1.73 1.73 0 0 0 .086-1.221.67.67 0 0 0-.689-.47c-.283.029-.264.293-.332.485a5.779 5.779 0 0 1-.414 1.132 11.055 11.055 0 0 1-1.032 1.311 1.135 1.135 0 0 1-.906.548zm-1.431-.4l-.016.145c.121.108.227.273.367.311a.3.3 0 0 0 .38-.319.5.5 0 0 0-.315-.353c-.123-.028-.276.134-.416.213z" data-name="Path 123" transform="translate(-406.88 -198.744)" style="fill:#fff"/>
</svg>
