<svg xmlns="http://www.w3.org/2000/svg" width="18.217" height="10.116" viewBox="0 0 18.217 10.116">
    <path id="prefix__Path_73" d="M1230.45 58.512c.128-.1.24-.186.351-.274l1.8-1.432a.444.444 0 0 1 .284-.1h1.169a.383.383 0 0 1 .419.419v7.5a.376.376 0 0 1-.387.406c-.411.005-.823.007-1.234 0a.451.451 0 0 1-.247-.094c-.7-.546-1.392-1.1-2.088-1.649-.017-.014-.036-.026-.068-.049v1.306a1.362 1.362 0 0 1-1.369 1.368h-11.462a1.365 1.365 0 0 1-1.358-1.337c-.005-1.284 0-2.568 0-3.852v-2.189-1.4a1.367 1.367 0 0 1 1.366-1.338h11.444a1.363 1.363 0 0 1 1.38 1.367v1.243zm-7.094-1.953h-5.709a.6.6 0 0 0-.627.611c-.005.3 0 .606 0 .909v4.778c0 .54.01 1.08 0 1.62a.643.643 0 0 0 .676.676c1.567-.011 3.135 0 4.7 0h6.655a.6.6 0 0 0 .643-.64v-7.32a.6.6 0 0 0-.628-.63h-5.708zm10.357.914h-.686a.158.158 0 0 0-.091.041q-.585.461-1.166.923c-.411.326-.82.653-1.234.975a.206.206 0 0 0-.088.183v2.565a.183.183 0 0 0 .078.16q1.209.954 2.416 1.911a.171.171 0 0 0 .1.036h.613a.351.351 0 0 0 .055-.009z" data-name="Path 73" transform="translate(-1216.258 -55.797)" style="fill:#ffffff"/>
</svg>
