<svg xmlns="http://www.w3.org/2000/svg" xmlns:xlink="http://www.w3.org/1999/xlink" width="116.155" height="112.5" viewBox="0 0 116.155 112.5">
  <defs>
    <clipPath id="clip-Artboard_7">
      <rect width="116.155" height="112.5"/>
    </clipPath>
  </defs>
  <g id="Artboard_7" data-name="Artboard 7" clip-path="url(#clip-Artboard_7)">
    <rect width="116.155" height="112.5" fill="#fff"/>
    <g id="Group_1" data-name="Group 1" transform="translate(-996.931)">
      <path id="Path_1" data-name="Path 1" d="M1055.832,109q-19.92,0-39.841,0a6.608,6.608,0,0,1-6.936-6.764,50.726,50.726,0,0,1,4.27-21.126,25.882,25.882,0,0,1,12.993-13.085,28.014,28.014,0,0,1,13.941-2.456,12.054,12.054,0,0,1,3.153,1.124,37.089,37.089,0,0,0,27.507-1.039,1.6,1.6,0,0,1,.552-.128c9.539-.432,17.555,2.693,23.656,10.209a27.652,27.652,0,0,1,4.657,8.919,56.327,56.327,0,0,1,2.888,17.858,6.7,6.7,0,0,1-6.421,6.472c-10.62.031-21.241.006-31.861,0h-8.558Zm-.037-6.655h15.88q11.481,0,22.963,0c1.48,0,1.419.222,1.35-1.445a50.234,50.234,0,0,0-2.7-14.578,20.812,20.812,0,0,0-4.413-7.611,21.111,21.111,0,0,0-7.319-5.052,24.167,24.167,0,0,0-9.6-1.437q-17.073.054-34.147.01a19.345,19.345,0,0,0-7.776,1.486,20.257,20.257,0,0,0-11.673,12.732,53.083,53.083,0,0,0-2.678,15c-.025.673.157.893.859.886,2.852-.03,5.705.012,8.558.013Q1040.448,102.347,1055.8,102.344Z" fill="#6d6d6d"/>
      <path id="Path_2" data-name="Path 2" d="M1055.794,62.144a30.081,30.081,0,1,1,30.143-29.754A30.024,30.024,0,0,1,1055.794,62.144ZM1032.442,32a23.406,23.406,0,1,0,23.625-23.339A23.442,23.442,0,0,0,1032.442,32Z" fill="#6d6d6d"/>
    </g>
  </g>
</svg>
